<?xml version="1.0" encoding="utf-8"?>
<!-- Generator: Adobe Illustrator 16.0.0, SVG Export Plug-In . SVG Version: 6.00 Build 0)  -->
<!DOCTYPE svg PUBLIC "-//W3C//DTD SVG 1.1//EN" "http://www.w3.org/Graphics/SVG/1.1/DTD/svg11.dtd">
<svg version="1.1" id="svg2293" xmlns:svg="http://www.w3.org/2000/svg"
	 xmlns="http://www.w3.org/2000/svg" xmlns:xlink="http://www.w3.org/1999/xlink" x="0px" y="0px" width="100px" height="100px"
	 viewBox="0.167 0.25 100 100" enable-background="new 0.167 0.25 100 100" xml:space="preserve">
<g id="layer1">
	<g id="g2317" transform="translate(7.62547e-2,-2.940826)">
		<path fill="#002C60" d="M100.172,97.574c0,2.878-2.634,5.209-5.882,5.209H6.054c-3.249,0-5.882-2.331-5.882-5.209V7.99
			c0-2.875,2.634-5.208,5.882-5.208H94.29c3.248,0,5.882,2.333,5.882,5.208V97.574z"/>
		<g id="layer1_1_" inkscape:label="Layer 1" inkscape:groupmode="layer">
			<path id="rect4652" fill="#FFFFFF" stroke="#595959" stroke-width="1" d="M17.65,75.223h64.927c1.752,0,3.172,1.409,3.172,3.149
				v5.646c0,1.739-1.42,3.151-3.172,3.151H17.65c-1.753,0-3.173-1.412-3.173-3.151v-5.646C14.476,76.632,15.896,75.223,17.65,75.223
				z"/>
			<path id="rect4609" sodipodi:nodetypes="cssssssssssss" fill="#FFFFFF" stroke="#676767" stroke-width="0.5" d="M18.892,48.534
				h62.562c0.712,0,1.626,0.529,2.188,1.332c0.562,0.801,3.22,4.803,3.817,5.655c0.596,0.854,0.726,1.663,0.726,2.718v22.224
				c0,1.681-1.354,3.035-3.041,3.035H15.202c-1.688,0-3.044-1.354-3.044-3.035V58.239c0-0.908,0.186-2.211,0.828-3.043
				c0.808-1.045,2.975-4.688,3.545-5.46C17.103,48.963,18.153,48.534,18.892,48.534z"/>
			<path id="path4718" sodipodi:nodetypes="cssssssss" fill="#FBFBFB" d="M19.437,49.409c-0.932,0-2.077,0.144-2.541,0.904
				l-3.523,5.775c-0.524,0.854,0.061,2.325,1.731,2.325h69.797c2.43,0,2.264-1.862,1.731-2.653l-3.277-4.878
				c-0.594-0.885-0.812-1.474-2.296-1.474H19.437z"/>
			
				<linearGradient id="path4750_1_" gradientUnits="userSpaceOnUse" x1="236.6884" y1="-523.9152" x2="236.8691" y2="-571.5109" gradientTransform="matrix(1.4926 0 0 -0.6687 -303.1798 -297.4592)">
				<stop  offset="0" style="stop-color:#FFFFFF;stop-opacity:0.1237"/>
				<stop  offset="0.1034" style="stop-color:#FFFFFF"/>
				<stop  offset="1" style="stop-color:#FFFFFF;stop-opacity:0"/>
			</linearGradient>
			<path id="path4750" sodipodi:nodetypes="cssssssssssss" fill="none" stroke="url(#path4750_1_)" stroke-width="0.947" d="
				M19.772,50.274h60.868c0.679,0,1.544,0.503,2.079,1.262c0.534,0.76,2.402,3.735,2.971,4.545c0.565,0.806,0.809,1.573,0.809,2.57
				V79.41c0,1.592-0.251,2.299-1.852,2.299h-68.72c-1.601,0-1.965-0.707-1.965-2.299V58.651c0-0.86,0.41-2.096,1.019-2.883
				c0.768-0.989,2.006-3.625,2.549-4.354C18.074,50.681,19.069,50.274,19.772,50.274z"/>
			<path id="rect15660" fill="#FFFFFF" stroke="#1C1C1C" stroke-width="0.5" stroke-linecap="round" stroke-linejoin="round" d="
				M27.319,19.09h45.7c0.182,0,0.328,0.146,0.328,0.325v34.011c0,0.18-0.146,0.324-0.328,0.324h-45.7
				c-0.182,0-0.329-0.145-0.329-0.324V19.415C26.99,19.236,27.138,19.09,27.319,19.09z"/>
			
				<path id="path4760" sodipodi:nodetypes="cc" fill="none" stroke="#FFFFFF" stroke-width="1" stroke-linecap="round" stroke-linejoin="round" d="
				M86.307,57.735H14.036"/>
			<g id="g4849" transform="translate(0.000000,2.000000)" opacity="0.4358">
				<rect id="rect4833" x="31.629" y="23.532" fill-opacity="0.2924" width="35.229" height="1.841"/>
				<rect id="rect4835" x="31.629" y="27.212" fill-opacity="0.2924" width="35.229" height="1.84"/>
				<rect id="rect4837" x="31.629" y="30.893" fill-opacity="0.2924" width="35.229" height="1.841"/>
				<rect id="rect4839" x="31.629" y="34.573" fill-opacity="0.2924" width="20.396" height="1.841"/>
				<rect id="rect4843" x="31.629" y="41.934" fill-opacity="0.2924" width="35.229" height="1.839"/>
				<rect id="rect4845" x="31.629" y="45.614" fill-opacity="0.2924" width="35.229" height="1.839"/>
			</g>
		</g>
		<path id="path2311" fill="#002C60" d="M69.027,62.925l1.733-1.377l5.108,3.899v-9.33l8.959,7.035l-5.877,4.741l6.071,4.82
			l-9.153,6.805v-9.254l-4.916,3.977l-2.022-1.527l6.455-4.896L69.027,62.925z"/>
		<path id="path2313" fill="#FFFFFF" d="M78.373,60.63v4.894l2.986-2.293L78.373,60.63z"/>
		<path id="path2315" fill="#FFFFFF" d="M78.276,70.341l0.194,4.359l2.985-2.064L78.276,70.341z"/>
		<path fill="#4F4F4F" d="M23.287,61.567c0,1.442-1.175,2.609-2.627,2.609l0,0c-1.451,0-2.626-1.167-2.626-2.609l0,0
			c0-1.438,1.175-2.604,2.626-2.604l0,0C22.112,58.962,23.287,60.128,23.287,61.567L23.287,61.567z"/>
	</g>
</g>
</svg>
